<?xml version="1.0" standalone="no"?>
<!DOCTYPE svg PUBLIC "-//W3C//DTD SVG 20010904//EN"
 "http://www.w3.org/TR/2001/REC-SVG-20010904/DTD/svg10.dtd">
<svg version="1.0" xmlns="http://www.w3.org/2000/svg"
 width="1280.000000pt" height="1280.000000pt" viewBox="0 0 1280.000000 1280.000000"
 preserveAspectRatio="xMidYMid meet">
<metadata>
Created by potrace 1.14, written by Peter Selinger 2001-2017
</metadata>
<g transform="translate(0.000000,1280.000000) scale(0.100000,-0.100000)"
fill="#000000" stroke="none">
<path d="M6402 7888 c2 -2697 3 -4417 1 -3823 -2 594 -7 2799 -12 4900 l-9
3820 5 -4897 c3 -3024 1 -4898 -5 -4898 -5 0 -38 13 -73 29 -115 51 -367 131
-414 130 -11 0 21 -11 71 -24 155 -41 452 -151 440 -163 -2 -2 -37 11 -77 28
-166 73 -399 142 -541 160 -105 13 -389 13 -538 0 -206 -19 -434 -75 -634
-156 -231 -95 -596 -296 -758 -420 -27 -20 -48 -34 -48 -31 0 3 33 29 73 58
75 55 103 78 77 64 -25 -14 -180 -127 -180 -132 0 -2 6 -1 13 3 8 5 8 2 -2 -9
-15 -18 -26 -23 -16 -7 13 22 -10 8 -64 -37 -111 -94 -231 -206 -231 -217 0
-6 37 25 83 69 45 44 26 23 -43 -48 -69 -70 -127 -127 -129 -127 -3 0 17 23
44 51 28 28 45 50 39 48 -6 -2 -43 -40 -82 -84 -68 -76 -88 -106 -59 -89 8 5
8 2 -2 -9 -16 -20 -25 -23 -15 -4 4 6 -2 3 -14 -7 -26 -23 -30 -44 -4 -25 14
11 13 10 -2 -9 -21 -24 -32 -29 -20 -9 5 8 2 8 -9 -2 -20 -16 -23 -36 -4 -25
7 4 9 3 4 -2 -5 -5 -14 -9 -20 -9 -5 0 -12 -6 -15 -14 -3 -9 0 -11 9 -6 8 5
11 4 6 -1 -5 -5 -14 -9 -20 -9 -5 0 -12 -6 -15 -14 -3 -9 0 -11 8 -6 9 5 11 4
6 -4 -4 -6 -11 -9 -16 -6 -11 7 -79 -108 -133 -225 -42 -91 -70 -174 -47 -140
12 18 12 3 0 -25 -6 -13 -9 -15 -9 -5 -1 13 -2 13 -11 0 -12 -19 -13 -53 -1
-46 5 4 7 -3 4 -15 -4 -15 -8 -17 -14 -8 -5 9 -10 3 -14 -17 -3 -16 -11 -49
-18 -74 -17 -64 -16 -371 2 -435 38 -141 87 -269 101 -260 3 2 6 -6 6 -18 -1
-12 4 -22 11 -22 6 0 15 -4 20 -9 5 -5 3 -6 -4 -2 -20 11 -15 -4 18 -56 17
-26 35 -46 39 -43 5 3 12 0 16 -6 5 -8 3 -9 -6 -4 -8 5 -11 3 -8 -6 3 -8 10
-13 16 -12 5 1 16 -5 24 -15 12 -15 11 -16 -5 -3 -28 22 -20 -3 10 -30 15 -13
21 -16 14 -7 -22 30 -7 20 25 -14 16 -18 19 -24 6 -14 -12 11 -22 14 -22 9 0
-20 176 -177 261 -233 88 -58 228 -123 290 -134 19 -3 4 5 -33 18 -98 35 -189
79 -257 126 -86 58 -76 59 13 1 356 -232 915 -253 1509 -56 206 68 487 200
645 303 12 8 22 12 22 9 0 -4 -20 -18 -45 -33 -25 -14 -45 -28 -45 -31 0 -18
277 171 410 280 92 75 320 296 320 310 0 4 -6 5 -12 1 -7 -4 0 7 16 24 36 39
49 43 15 4 -15 -17 -11 -15 14 7 35 34 51 60 25 45 -9 -5 -9 -2 1 9 15 18 26
23 16 7 -3 -6 -4 -10 -2 -10 6 0 77 98 77 106 0 3 -5 2 -12 -2 -7 -4 -8 -3 -4
5 4 6 11 9 16 6 4 -3 20 15 34 39 29 49 32 61 14 50 -7 -4 -8 -3 -4 5 4 6 11
9 16 6 5 -3 14 3 19 14 14 26 14 34 -1 25 -8 -4 -10 -3 -5 2 5 5 14 9 20 9 15
0 128 226 123 247 -2 10 1 21 6 25 7 4 8 1 3 -8 -5 -9 -5 -11 2 -4 24 24 134
328 132 365 0 10 -3 9 -10 -5 -7 -15 -8 -11 -4 15 4 19 10 62 15 95 5 33 12
1669 17 3635 4 1966 9 3004 10 2305 3 -1542 -12 -5958 -21 -6000 l-6 -30 12
30 c14 35 25 2215 27 5314 l1 1954 58 -6 c36 -3 48 -2 32 3 -14 4 -41 9 -60
10 -25 2 -29 4 -12 7 54 10 289 -62 517 -159 221 -94 637 -315 680 -360 6 -6
-7 -1 -27 11 -21 13 -38 21 -38 18 0 -3 47 -35 105 -72 132 -84 258 -178 357
-266 76 -69 108 -89 72 -46 -10 12 7 -3 39 -33 31 -30 57 -56 57 -59 0 -2 -9
4 -20 14 -45 41 -14 -5 47 -70 36 -38 60 -61 52 -50 -14 20 -13 20 9 1 23 -20
30 -32 12 -21 -17 10 -11 -12 7 -26 15 -12 16 -12 8 1 -8 13 -7 13 8 1 19 -15
23 -26 6 -15 -7 4 -10 1 -7 -7 3 -8 10 -13 16 -12 5 1 16 -5 24 -15 12 -15 11
-16 -4 -3 -10 7 -18 9 -18 3 0 -11 31 -39 37 -34 3 2 8 0 11 -4 4 -4 1 -4 -7
1 -9 5 -12 3 -9 -6 3 -8 10 -14 15 -14 6 0 15 -4 20 -9 5 -5 2 -6 -6 -1 -9 5
-12 3 -9 -6 3 -8 10 -14 15 -14 6 0 15 -4 20 -9 5 -5 2 -6 -6 -1 -9 5 -12 3
-9 -6 3 -8 10 -14 15 -14 6 0 15 -4 20 -9 5 -5 3 -6 -4 -2 -19 11 -15 -6 8
-34 l20 -25 -12 25 c-9 20 -9 23 1 13 7 -7 13 -25 14 -40 1 -15 6 -28 13 -28
6 0 15 -4 20 -9 5 -5 2 -6 -6 -1 -16 9 -15 8 22 -63 17 -32 32 -50 39 -46 7 4
8 3 4 -5 -9 -14 52 -143 64 -136 5 3 12 0 16 -6 5 -8 3 -9 -5 -4 -9 5 -12 2
-9 -11 2 -11 9 -18 16 -17 6 2 9 -3 7 -10 -6 -15 46 -142 59 -144 10 -2 26
-24 26 -38 0 -5 -5 -3 -10 5 -16 24 -12 8 21 -81 33 -91 44 -112 34 -64 l-6
30 14 -30 c9 -18 10 -32 4 -36 -6 -4 -5 -14 3 -25 11 -18 11 -18 5 1 -4 12 -3
16 3 10 14 -15 33 -77 22 -70 -6 4 -10 13 -10 22 0 9 -3 14 -6 10 -4 -3 8 -50
25 -104 16 -54 44 -154 61 -223 44 -179 49 -196 44 -140 l-4 45 15 -55 c8 -30
14 -64 13 -75 0 -13 -3 -9 -8 10 l-8 30 0 -30 c0 -16 4 -41 8 -55 l8 -25 2 25
c2 24 3 23 10 -5 4 -16 8 -41 8 -55 0 -22 -1 -22 -8 5 -12 46 -12 0 0 -70 41
-248 53 -633 25 -840 -16 -120 -17 -154 -5 -115 17 53 9 -14 -15 -133 -28
-135 -49 -213 -39 -142 3 22 4 38 1 35 -8 -8 -68 -242 -64 -246 2 -3 14 34 27
81 13 47 25 83 27 81 6 -6 -64 -253 -78 -274 -8 -14 -9 -12 -3 8 16 60 -7 6
-35 -81 -34 -105 -35 -113 -22 -105 5 4 7 -3 4 -14 -3 -11 -9 -23 -14 -26 -5
-3 -6 3 -4 13 3 10 -3 0 -13 -22 -10 -22 -22 -53 -26 -70 -7 -29 -7 -29 8 -10
15 19 15 18 5 -13 -7 -21 -14 -29 -19 -22 -5 8 -9 7 -14 -5 -10 -26 -7 -42 5
-25 8 11 9 9 4 -10 -4 -14 -12 -29 -17 -35 -6 -6 -7 -4 -3 8 4 9 5 17 3 17 -5
0 -53 -122 -63 -160 -5 -20 -4 -22 5 -10 10 13 11 12 6 -3 -3 -11 -9 -30 -12
-43 -3 -13 -12 -24 -19 -24 -7 0 -22 -25 -34 -56 -25 -66 -26 -74 -6 -48 13
17 13 16 3 -13 -7 -18 -15 -28 -18 -22 -4 5 -23 -32 -43 -83 -53 -136 -52
-132 -39 -124 7 4 12 2 12 -3 0 -6 -6 -11 -13 -11 -11 0 -62 -111 -93 -205
l-7 -20 17 20 c15 19 15 17 0 -20 -19 -47 -30 -61 -19 -25 14 47 -3 15 -34
-63 -35 -87 -38 -99 -16 -71 14 18 15 17 4 -8 -7 -15 -15 -25 -19 -23 -5 3
-11 -2 -14 -11 -9 -24 -7 -31 5 -14 8 11 9 9 3 -10 -3 -14 -11 -32 -16 -40 -6
-10 -7 -7 -2 10 14 52 -7 10 -51 -104 -25 -65 -44 -124 -41 -130 2 -6 5 -3 5
6 1 9 5 19 10 22 5 4 7 -3 4 -14 -10 -36 35 -23 90 27 29 26 39 33 23 15 -17
-17 -26 -32 -20 -32 9 0 64 64 64 75 0 3 -5 3 -12 -1 -7 -5 -8 -3 -4 5 5 7 11
10 14 7 7 -7 32 13 32 26 0 6 -8 4 -17 -3 -16 -13 -17 -12 -4 3 7 10 17 15 22
13 11 -7 42 53 34 66 -4 5 -1 8 6 7 6 -2 14 3 17 11 3 9 0 11 -8 6 -9 -5 -11
-4 -6 4 4 6 11 9 16 6 5 -3 18 12 30 34 23 47 25 55 8 45 -8 -4 -10 -3 -5 2 5
5 14 9 20 9 7 0 12 10 11 22 0 12 3 20 7 17 12 -7 51 75 45 92 -3 8 -1 13 4
11 9 -2 130 243 130 264 0 6 -4 7 -10 4 -6 -3 -7 1 -3 10 4 13 8 14 14 4 6
-10 10 -9 15 6 4 11 13 35 20 54 17 40 17 44 3 36 -5 -4 -3 10 5 30 9 21 16
39 16 41 0 2 5 3 11 2 6 -2 37 65 69 147 63 164 82 223 50 160 -11 -22 -18
-32 -15 -22 3 10 5 23 5 28 0 5 9 18 21 30 11 11 34 57 50 101 30 84 36 114
18 88 -8 -11 -9 -9 -4 10 4 14 12 30 17 35 6 6 7 3 3 -10 -5 -15 -4 -17 3 -5
16 25 84 241 78 247 -3 4 -6 -1 -6 -10 0 -9 -4 -18 -9 -21 -5 -4 -4 10 2 29 6
21 13 31 18 24 6 -10 51 120 64 186 5 26 4 27 -4 8 -20 -45 -18 -22 4 58 22
77 44 126 29 64 -4 -17 -4 -28 -2 -25 8 7 52 169 82 300 15 63 30 131 35 150
5 19 12 55 15 80 4 36 4 39 -3 15 -5 -16 -12 -47 -16 -69 -3 -21 -8 -36 -11
-34 -2 3 1 29 7 59 6 30 21 115 35 189 17 98 23 117 20 70 -6 -81 6 -38 26 95
20 136 17 632 -6 805 -9 74 -19 136 -22 139 -6 7 -5 -5 13 -139 20 -149 24
-715 6 -790 -10 -39 -10 -33 -5 40 11 141 7 598 -7 710 -15 120 -46 308 -65
392 -7 32 -10 55 -6 53 4 -3 13 -34 20 -70 7 -36 15 -64 17 -61 7 6 -27 167
-39 186 -6 10 -7 5 -3 -15 3 -20 2 -25 -4 -15 -5 8 -11 31 -15 50 -4 26 -3 30
3 15 l10 -20 0 20 c1 25 -18 59 -20 35 -1 -19 -18 18 -18 40 0 9 4 8 9 -5 7
-16 9 -17 9 -3 1 18 -75 238 -85 247 -4 3 -4 -3 0 -14 4 -12 4 -16 -2 -10 -13
15 -52 116 -42 110 5 -3 14 -21 20 -41 7 -19 14 -33 17 -31 7 8 -58 157 -67
152 -4 -3 -11 2 -14 11 -3 8 -2 12 4 9 15 -9 13 -3 -20 67 -16 34 -35 63 -42
63 -6 0 -13 7 -15 15 -4 13 -3 13 7 0 9 -13 10 -12 7 5 -2 11 -9 19 -16 17 -7
-1 -10 2 -6 7 7 13 -53 133 -64 127 -4 -3 -7 5 -7 17 1 12 -4 22 -11 22 -6 0
-15 4 -20 9 -5 5 -3 6 5 2 15 -9 15 -1 1 25 -5 11 -15 16 -21 13 -7 -4 -8 -3
-4 4 9 14 -22 75 -34 67 -5 -3 -12 0 -16 6 -4 8 -3 9 4 5 15 -9 15 -1 1 25 -5
11 -14 17 -19 14 -5 -3 -12 0 -16 6 -5 8 -3 9 6 4 8 -5 11 -3 8 6 -3 8 -10 14
-15 14 -6 0 -15 4 -20 9 -5 5 -2 6 6 1 9 -5 12 -3 9 6 -3 8 -11 13 -17 11 -7
-1 -10 2 -6 8 8 13 -13 52 -25 45 -5 -3 -12 0 -16 6 -5 8 -3 9 6 4 8 -5 11 -3
8 6 -3 8 -10 14 -15 14 -6 0 -15 4 -20 9 -5 5 -2 6 6 1 9 -5 12 -3 9 6 -3 8
-10 14 -15 14 -6 0 -15 4 -20 9 -5 5 -2 6 6 1 9 -5 12 -3 9 6 -3 8 -10 14 -16
14 -5 0 -14 4 -19 9 -5 5 -2 6 6 1 9 -5 12 -3 9 6 -3 8 -10 14 -16 14 -5 0
-14 4 -19 9 -5 5 -2 6 6 1 9 -5 12 -3 9 6 -3 8 -10 14 -16 14 -5 0 -14 4 -19
9 -5 5 -3 6 5 2 18 -11 15 9 -5 25 -15 12 -16 12 -8 -1 8 -13 7 -13 -8 -1 -19
15 -23 26 -6 15 7 -4 10 -1 7 7 -3 8 -10 14 -16 14 -5 0 -14 4 -19 9 -5 5 -3
6 5 2 18 -11 15 9 -5 25 -15 12 -16 12 -8 -1 8 -13 7 -13 -8 -1 -19 15 -23 26
-6 15 7 -4 10 -1 7 7 -3 8 -10 14 -16 14 -5 0 -14 4 -19 9 -5 5 -3 6 5 2 18
-11 15 9 -5 25 -15 12 -16 12 -8 -1 8 -13 7 -13 -8 -1 -19 15 -23 26 -6 15 7
-4 10 -1 7 7 -3 8 -10 13 -16 12 -5 -1 -16 5 -24 15 -12 15 -11 16 5 3 25 -20
21 2 -5 25 -13 12 -18 13 -13 4 8 -13 7 -13 -8 -1 -18 15 -23 26 -7 16 17 -10
11 12 -7 26 -15 12 -16 12 -8 -1 8 -13 7 -13 -8 -1 -18 15 -23 26 -7 16 17
-10 11 12 -7 26 -15 12 -16 12 -8 -1 8 -13 7 -13 -8 -1 -18 15 -23 26 -7 16
17 -10 11 12 -7 26 -15 12 -16 12 -8 -1 5 -9 0 -8 -13 4 -25 21 -31 36 -7 16
24 -20 17 5 -7 26 -13 12 -18 13 -13 4 5 -9 0 -8 -13 4 -25 21 -31 36 -7 16
27 -22 16 6 -12 31 -20 18 -24 19 -13 4 15 -20 14 -20 -8 -1 -23 20 -30 32
-12 21 17 -10 11 12 -7 26 -15 12 -16 12 -8 -1 5 -9 0 -8 -13 4 -25 21 -31 36
-7 16 27 -22 16 6 -12 31 -20 18 -24 19 -13 4 15 -20 14 -20 -8 -1 -23 20 -30
32 -12 21 21 -13 9 13 -17 36 -21 18 -24 19 -13 4 11 -15 8 -14 -13 4 -28 25
-38 43 -12 21 38 -32 5 12 -102 137 -65 75 -136 158 -158 184 -22 26 -44 48
-49 48 -6 1 3 -14 20 -31 21 -24 17 -22 -14 7 -40 37 -59 61 -27 35 8 -7 15
-9 15 -4 -1 5 -40 50 -88 100 -48 49 -74 74 -57 55 30 -36 30 -36 -13 4 -41
38 -53 53 -32 40 6 -3 10 -3 10 0 0 8 -200 235 -208 235 -3 0 3 -9 13 -20 10
-11 16 -20 13 -20 -2 0 -17 14 -34 32 -16 18 -21 26 -11 19 35 -27 14 2 -79
112 -107 124 -121 140 -109 117 6 -10 1 -8 -13 4 -25 21 -31 36 -7 16 31 -26
12 7 -32 55 -25 28 -42 43 -37 35 7 -13 5 -13 -9 -1 -18 15 -23 26 -7 16 19
-12 10 12 -12 31 -22 19 -23 19 -8 -1 15 -20 14 -20 -8 -1 -23 20 -30 32 -12
21 17 -10 11 12 -7 26 -15 12 -16 12 -8 -1 8 -13 7 -13 -8 -1 -19 15 -23 26
-6 15 7 -4 10 -1 7 7 -3 8 -10 13 -16 12 -5 -1 -16 5 -24 15 -12 15 -11 16 5
3 25 -20 21 2 -5 25 -13 12 -18 13 -13 4 8 -13 7 -13 -8 -1 -18 15 -23 26 -7
16 17 -10 11 12 -7 26 -14 12 -16 12 -8 0 5 -10 4 -12 -4 -7 -6 4 -9 11 -6 16
8 12 -25 61 -35 55 -5 -3 -12 0 -16 6 -5 8 -3 9 6 4 8 -5 11 -3 8 6 -3 8 -10
14 -16 14 -5 0 -14 4 -19 9 -5 5 -3 6 5 2 18 -11 15 9 -5 25 -14 12 -16 12 -8
0 5 -10 4 -12 -4 -7 -6 4 -9 11 -6 16 7 11 -45 101 -55 95 -5 -3 -12 0 -16 6
-5 8 -3 9 6 4 8 -5 11 -3 8 6 -3 8 -11 13 -17 11 -7 -1 -10 2 -7 7 6 10 -137
294 -145 287 -2 -2 -5 5 -5 17 -2 29 -103 307 -104 287 -2 -19 -19 18 -19 40
0 9 4 8 9 -5 5 -11 9 -17 9 -12 1 7 -34 159 -58 252 l-10 40 4 -50 c4 -46 4
-47 -5 -15 -13 49 -40 202 -39 220 1 8 5 2 10 -15 5 -20 6 -9 2 30 -6 69 -13
84 -14 34 -1 -22 -6 -5 -16 46 -11 59 -15 155 -15 363 l0 282 -225 0 -226 0 5
-4902z m551 3827 c4 -25 4 -33 -2 -20 -4 11 -11 38 -14 60 -4 25 -4 33 2 20 4
-11 11 -38 14 -60z m14 -67 c-3 -8 -6 -5 -6 6 -1 11 2 17 5 13 3 -3 4 -12 1
-19z m46 -138 c3 -11 2 -18 -3 -15 -4 3 -10 14 -13 25 -3 11 -2 18 3 15 4 -3
10 -14 13 -25z m46 -135 c17 -43 29 -80 27 -82 -4 -4 -66 152 -66 165 0 14 11
-9 39 -83z m69 -170 c-3 -3 -9 2 -12 12 -6 14 -5 15 5 6 7 -7 10 -15 7 -18z
m72 -135 c6 -11 8 -20 6 -20 -3 0 -10 9 -16 20 -6 11 -8 20 -6 20 3 0 10 -9
16 -20z m90 -150 c6 -11 8 -20 6 -20 -3 0 -10 9 -16 20 -6 11 -8 20 -6 20 3 0
10 -9 16 -20z m111 -167 c13 -16 12 -17 -3 -4 -17 13 -22 21 -14 21 2 0 10 -8
17 -17z m219 -288 c13 -14 21 -25 18 -25 -2 0 -15 11 -28 25 -13 14 -21 25
-18 25 2 0 15 -11 28 -25z m90 -110 c13 -14 21 -25 18 -25 -2 0 -15 11 -28 25
-13 14 -21 25 -18 25 2 0 15 -11 28 -25z m56 -67 l29 -33 -32 29 c-18 17 -33
31 -33 33 0 8 8 1 36 -29z m54 -63 c13 -14 21 -25 18 -25 -2 0 -15 11 -28 25
-13 14 -21 25 -18 25 2 0 15 -11 28 -25z m135 -155 c21 -22 37 -40 34 -40 -3
0 -23 18 -44 40 -21 22 -37 40 -34 40 3 0 23 -18 44 -40z m75 -85 c19 -19 32
-35 29 -35 -3 0 -20 16 -39 35 -19 19 -32 35 -29 35 3 0 20 -16 39 -35z m165
-185 c21 -22 37 -40 34 -40 -3 0 -23 18 -44 40 -21 22 -37 40 -34 40 3 0 23
-18 44 -40z m165 -185 c19 -19 32 -35 29 -35 -3 0 -20 16 -39 35 -19 19 -32
35 -29 35 3 0 20 -16 39 -35z m70 -80 c19 -19 32 -35 29 -35 -3 0 -20 16 -39
35 -19 19 -32 35 -29 35 3 0 20 -16 39 -35z m66 -77 l29 -33 -32 29 c-31 28
-38 36 -30 36 2 0 16 -15 33 -32z m54 -63 c13 -14 21 -25 18 -25 -2 0 -15 11
-28 25 -13 14 -21 25 -18 25 2 0 15 -11 28 -25z m-367 -687 c31 -21 57 -41 57
-43 0 -3 -31 16 -70 41 -38 26 -70 49 -70 51 0 5 12 -2 83 -49z m127 -94 c0
-3 -13 4 -30 16 -16 12 -30 24 -30 26 0 3 14 -4 30 -16 17 -12 30 -24 30 -26z
m175 -139 c41 -38 37 -36 -21 12 -131 108 -149 124 -89 80 34 -25 83 -66 110
-92z m211 -207 l29 -33 -32 29 c-31 28 -38 36 -30 36 2 0 16 -15 33 -32z m712
-93 c-3 -3 -9 2 -12 12 -6 14 -5 15 5 6 7 -7 10 -15 7 -18z m27 -45 c9 -16 13
-30 11 -30 -3 0 -12 14 -21 30 -9 17 -13 30 -11 30 3 0 12 -13 21 -30z m59
-116 c3 -8 2 -12 -4 -9 -6 3 -10 10 -10 16 0 14 7 11 14 -7z m-514 -154 c6
-11 8 -20 6 -20 -3 0 -10 9 -16 20 -6 11 -8 20 -6 20 3 0 10 -9 16 -20z m80
-151 c12 -23 20 -43 18 -45 -3 -2 -14 17 -26 41 -27 56 -20 60 8 4z m578 -44
c-3 -3 -9 2 -12 12 -6 14 -5 15 5 6 7 -7 10 -15 7 -18z m26 -61 c3 -8 2 -12
-4 -9 -6 3 -10 10 -10 16 0 14 7 11 14 -7z m-524 -69 c0 -5 -5 -3 -10 5 -5 8
-10 20 -10 25 0 6 5 3 10 -5 5 -8 10 -19 10 -25z m549 -15 c0 -10 -3 -8 -9 5
-12 27 -12 43 0 25 5 -8 9 -22 9 -30z m-519 -55 c0 -5 -5 -3 -10 5 -5 8 -10
20 -10 25 0 6 5 3 10 -5 5 -8 10 -19 10 -25z m49 -125 c0 -8 -6 0 -14 19 -8
18 -15 36 -15 40 1 13 29 -45 29 -59z m94 -269 c9 -29 12 -50 7 -45 -4 5 -15
33 -23 63 -9 29 -12 50 -7 45 4 -5 15 -33 23 -63z m36 -131 c0 -9 -4 -8 -9 5
-5 11 -9 27 -9 35 0 9 4 8 9 -5 5 -11 9 -27 9 -35z m19 -80 c0 -9 -3 -7 -8 5
-5 11 -8 29 -8 40 0 16 2 15 8 -5 4 -14 8 -32 8 -40z m20 -80 c0 -9 -3 -7 -8
5 -5 11 -8 29 -8 40 0 16 2 15 8 -5 4 -14 8 -32 8 -40z m86 -518 l5 -87 -14
105 c-7 58 -16 132 -19 165 -5 53 -4 50 8 -18 8 -43 17 -117 20 -165z m13
-439 c-1 -65 -3 -12 -3 117 0 129 2 182 3 118 2 -65 2 -171 0 -235z m-12 -208
c-4 -42 -10 -74 -12 -71 -3 2 -2 39 2 81 4 42 10 74 12 71 3 -2 2 -39 -2 -81z
m255 15 l-11 -25 6 25 c2 14 5 34 6 45 2 19 2 19 6 0 2 -12 -1 -32 -7 -45z
m-40 -171 c-17 -68 -35 -127 -39 -131 -4 -4 9 55 29 132 19 77 36 136 38 131
2 -5 -11 -64 -28 -132z m-99 -356 c-12 -20 -14 -14 -5 12 4 9 9 14 11 11 3 -2
0 -13 -6 -23z m-14 -45 c-3 -8 -6 -5 -6 6 -1 11 2 17 5 13 3 -3 4 -12 1 -19z
m-16 -49 c-5 -13 -10 -19 -10 -12 -1 15 10 45 15 40 3 -2 0 -15 -5 -28z m-38
-129 c-3 -11 -10 -23 -16 -27 -5 -3 -8 -2 -5 3 3 5 8 17 11 27 9 24 16 22 10
-3z m-220 -5 c-3 -9 -8 -14 -10 -11 -3 3 -2 9 2 15 9 16 15 13 8 -4z m-20 -65
c-3 -11 -10 -23 -16 -27 -5 -3 -8 -2 -5 3 3 5 8 17 11 27 9 24 16 22 10 -3z
m208 -13 c-10 -9 -11 -8 -5 6 3 10 9 15 12 12 3 -3 0 -11 -7 -18z m-20 -60
c-10 -9 -11 -8 -5 6 3 10 9 15 12 12 3 -3 0 -11 -7 -18z m-238 -77 c-3 -11
-10 -23 -16 -27 -5 -3 -8 -2 -5 3 3 5 8 17 11 27 9 24 16 22 10 -3z m200 -45
c-3 -9 -8 -14 -10 -11 -3 3 -2 9 2 15 9 16 15 13 8 -4z m-32 -78 c-10 -9 -11
-8 -5 6 3 10 9 15 12 12 3 -3 0 -11 -7 -18z m-238 -72 c-3 -9 -8 -14 -10 -11
-3 3 -2 9 2 15 9 16 15 13 8 -4z m-32 -82 c-12 -20 -14 -14 -5 12 4 9 9 14 11
11 3 -2 0 -13 -6 -23z m189 -73 c-6 -11 -13 -20 -16 -20 -2 0 0 9 6 20 6 11
13 20 16 20 2 0 0 -9 -6 -20z m-29 -67 c-12 -20 -14 -14 -5 12 4 9 9 14 11 11
3 -2 0 -13 -6 -23z m-221 -23 c-6 -11 -13 -20 -16 -20 -2 0 0 9 6 20 6 11 13
20 16 20 2 0 0 -9 -6 -20z m201 -27 c-12 -20 -14 -14 -5 12 4 9 9 14 11 11 3
-2 0 -13 -6 -23z m-248 -98 c-3 -9 -8 -14 -10 -11 -3 3 -2 9 2 15 9 16 15 13
8 -4z m-23 -55 c-6 -11 -13 -20 -16 -20 -2 0 0 9 6 20 6 11 13 20 16 20 2 0 0
-9 -6 -20z m201 -17 c-12 -20 -14 -14 -5 12 4 9 9 14 11 11 3 -2 0 -13 -6 -23z
m-46 -113 c-9 -16 -18 -30 -21 -30 -2 0 2 14 11 30 9 17 18 30 21 30 2 0 -2
-13 -11 -30z m-212 -20 c-3 -12 -8 -19 -11 -16 -5 6 5 36 12 36 2 0 2 -9 -1
-20z m-25 -60 c-5 -17 -15 -33 -21 -37 -5 -3 -7 -2 -4 4 4 6 11 22 16 37 14
36 22 33 9 -4z m182 -38 c0 -5 -7 -17 -15 -28 -14 -18 -14 -17 -4 9 12 27 19
34 19 19z m-210 -32 c-6 -11 -13 -20 -16 -20 -2 0 0 9 6 20 6 11 13 20 16 20
2 0 0 -9 -6 -20z m173 -45 c-3 -9 -8 -14 -10 -11 -3 3 -2 9 2 15 9 16 15 13 8
-4z m-237 -119 c-21 -49 -28 -46 -9 4 9 22 18 38 20 36 2 -2 -3 -20 -11 -40z
m-90 -230 c-21 -49 -28 -46 -9 4 9 22 18 38 20 36 2 -2 -3 -20 -11 -40z m154
24 c-6 -11 -13 -20 -16 -20 -2 0 0 9 6 20 6 11 13 20 16 20 2 0 0 -9 -6 -20z
m-182 -101 c-6 -16 -12 -28 -14 -26 -5 5 13 57 20 57 3 0 0 -14 -6 -31z
m-4948 -783 c0 -2 -26 -25 -57 -51 l-58 -47 55 51 c54 50 60 55 60 47z m-370
-359 c0 -2 -12 -14 -27 -28 l-28 -24 24 28 c23 25 31 32 31 24z m3405 -281
c-9 -30 -20 -58 -24 -60 -4 -3 2 24 13 59 24 79 34 79 11 1z m-3595 24 c-6
-11 -13 -20 -16 -20 -2 0 0 9 6 20 6 11 13 20 16 20 2 0 0 -9 -6 -20z m-30
-50 c-6 -11 -13 -20 -16 -20 -2 0 0 9 6 20 6 11 13 20 16 20 2 0 0 -9 -6 -20z
m-47 -85 c-3 -9 -8 -14 -10 -11 -3 3 -2 9 2 15 9 16 15 13 8 -4z m3628 -12
c-12 -20 -14 -14 -5 12 4 9 9 14 11 11 3 -2 0 -13 -6 -23z m-20 -50 c-12 -20
-14 -14 -5 12 4 9 9 14 11 11 3 -2 0 -13 -6 -23z m-3638 2 c-3 -9 -8 -14 -10
-11 -3 3 -2 9 2 15 9 16 15 13 8 -4z m-22 -52 c-12 -20 -14 -14 -5 12 4 9 9
14 11 11 3 -2 0 -13 -6 -23z m3649 19 c0 -5 -7 -17 -15 -28 -14 -18 -14 -17
-4 9 12 27 19 34 19 19z m-3669 -69 c-12 -20 -14 -14 -5 12 4 9 9 14 11 11 3
-2 0 -13 -6 -23z m3610 -56 c-10 -9 -11 -8 -5 6 3 10 9 15 12 12 3 -3 0 -11
-7 -18z m-20 -44 c-12 -20 -14 -14 -5 12 4 9 9 14 11 11 3 -2 0 -13 -6 -23z
m-3644 -85 c-3 -7 -5 -2 -5 12 0 14 2 19 5 13 2 -7 2 -19 0 -25z m-12 -55 c-4
-21 -11 -101 -15 -178 l-8 -140 4 150 c3 142 10 205 21 205 3 0 2 -17 -2 -37z
m3505 -133 c-6 -11 -13 -20 -16 -20 -2 0 0 9 6 20 6 11 13 20 16 20 2 0 0 -9
-6 -20z m-60 -90 c-12 -16 -24 -30 -26 -30 -3 0 4 14 16 30 12 17 24 30 26 30
3 0 -4 -13 -16 -30z m-3447 -160 c4 -36 3 -46 -3 -30 -8 25 -13 97 -6 89 2 -2
6 -29 9 -59z m3202 -118 c-61 -59 -135 -127 -165 -151 -48 -38 -47 -36 10 15
36 32 108 100 160 151 52 51 97 93 100 93 3 -1 -45 -49 -105 -108z m-3174 3
c6 -20 6 -26 -1 -19 -5 5 -12 25 -15 44 -5 36 -1 29 16 -25z m23 -71 c3 -8 2
-12 -4 -9 -6 3 -10 10 -10 16 0 14 7 11 14 -7z m35 -89 c0 -5 -6 1 -14 15 -8
14 -14 30 -14 35 0 6 6 -1 14 -15 8 -14 14 -29 14 -35z m2886 -45 c-7 -11
-199 -151 -235 -171 -30 -17 -29 -16 118 93 125 92 126 93 117 78z m-2810 -86
c9 -15 12 -23 6 -20 -11 7 -35 46 -28 46 3 0 12 -12 22 -26z m170 -214 c21
-22 37 -40 34 -40 -3 0 -23 18 -44 40 -21 22 -37 40 -34 40 3 0 23 -18 44 -40z
m86 -77 l24 -28 -30 25 c-16 14 -32 26 -34 28 -2 1 0 2 6 2 5 0 20 -12 34 -27z"/>
<path d="M6860 12630 c-5 -172 -3 -332 6 -428 3 -35 7 -62 7 -60 1 2 0 147 -3
323 -5 261 -7 292 -10 165z"/>
<path d="M6902 11980 c0 -14 4 -38 8 -55 7 -27 8 -27 8 -5 0 14 -4 39 -8 55
-7 27 -8 27 -8 5z"/>
<path d="M7005 9250 c11 -5 29 -9 40 -9 l20 0 -20 9 c-11 5 -29 9 -40 9 l-20
0 20 -9z"/>
<path d="M7071 9236 c2 -3 38 -16 80 -30 116 -39 116 -39 99 -28 -15 10 -164
62 -177 62 -3 0 -4 -2 -2 -4z"/>
<path d="M7271 9166 c9 -8 203 -86 206 -82 2 2 -41 22 -96 45 -90 37 -122 48
-110 37z"/>
<path d="M7492 9075 c3 -3 68 -37 144 -74 123 -60 228 -116 344 -184 19 -11
31 -15 25 -9 -15 16 -193 116 -339 189 -126 63 -187 90 -174 78z"/>
<path d="M8576 8376 c3 -8 13 -17 22 -21 13 -5 13 -2 -3 15 -21 24 -26 25 -19
6z"/>
<path d="M9782 7165 c-1 -11 3 -38 7 -60 l9 -40 0 35 c0 19 -4 46 -8 60 -6 20
-8 21 -8 5z"/>
<path d="M9786 5899 c-4 -28 -5 -53 -3 -56 3 -2 8 19 12 47 4 28 5 53 2 56 -2
3 -7 -19 -11 -47z"/>
<path d="M9425 5435 c-3 -26 -4 -49 -2 -52 3 -3 9 16 12 42 4 25 5 48 2 51 -2
3 -8 -16 -12 -41z"/>
<path d="M9405 5330 c-4 -23 -5 -43 -2 -46 2 -3 7 14 11 37 4 23 5 44 2 46 -2
2 -7 -14 -11 -37z"/>
<path d="M9626 5224 c-4 -14 -5 -28 -3 -31 3 -2 8 8 11 23 4 14 5 28 3 31 -3
2 -8 -8 -11 -23z"/>
<path d="M9316 4984 c-4 -14 -5 -28 -3 -31 3 -2 8 8 11 23 4 14 5 28 3 31 -3
2 -8 -8 -11 -23z"/>
<path d="M9086 4315 c-9 -26 -7 -32 5 -12 6 10 9 21 6 23 -2 3 -7 -2 -11 -11z"/>
<path d="M9236 4105 c-9 -26 -7 -32 5 -12 6 10 9 21 6 23 -2 3 -7 -2 -11 -11z"/>
<path d="M8750 3215 c-7 -8 -27 -19 -44 -24 -28 -8 -29 -9 -6 -10 24 0 78 35
68 44 -3 3 -11 -1 -18 -10z"/>
<path d="M5231 3169 c-52 -5 -97 -11 -100 -15 -3 -4 21 -3 54 1 33 5 173 11
310 15 l250 7 -210 0 c-115 0 -252 -4 -304 -8z"/>
<path d="M5751 3166 c2 -2 31 -6 64 -9 37 -3 51 -2 35 3 -25 8 -107 13 -99 6z"/>
<path d="M5035 3140 c-42 -11 -1 -11 50 -1 34 7 35 9 10 9 -16 0 -43 -4 -60
-8z"/>
<path d="M4920 3115 c-25 -7 -58 -16 -74 -19 -15 -4 -26 -9 -23 -12 4 -5 168
34 176 42 9 8 -36 2 -79 -11z"/>
<path d="M4685 3041 c-94 -35 -168 -70 -154 -71 4 0 28 10 55 22 27 12 90 36
139 54 50 18 83 33 75 33 -8 0 -60 -17 -115 -38z"/>
<path d="M4358 2894 c-82 -41 -148 -76 -148 -79 0 -5 299 142 309 151 16 15
-34 -7 -161 -72z"/>
<path d="M4143 2780 c-29 -17 -53 -33 -53 -36 0 -5 88 43 105 58 17 15 0 8
-52 -22z"/>
<path d="M4035 2714 c-51 -34 -69 -52 -29 -29 35 20 82 54 74 55 -3 0 -23 -12
-45 -26z"/>
<path d="M5548 374 c-16 -8 -28 -17 -28 -19 0 -10 16 -4 40 15 30 23 25 25
-12 4z"/>
<path d="M5365 280 c-77 -38 -136 -69 -131 -70 12 0 276 128 276 134 0 7 17
15 -145 -64z"/>
<path d="M5190 200 c-8 -5 -10 -10 -5 -10 6 0 17 5 25 10 8 5 11 10 5 10 -5 0
-17 -5 -25 -10z"/>
<path d="M5102 168 c-29 -12 -51 -22 -49 -24 5 -5 100 27 112 37 14 13 -3 10
-63 -13z"/>
<path d="M5005 130 c-13 -6 -15 -9 -5 -9 8 0 22 4 30 9 18 12 2 12 -25 0z"/>
<path d="M4935 109 c-16 -5 -70 -21 -120 -34 -49 -14 -72 -22 -50 -19 44 6
205 51 213 59 7 7 -8 5 -43 -6z"/>
<path d="M3830 40 c8 -5 26 -9 40 -9 l25 1 -25 8 c-14 4 -32 8 -40 9 -13 1
-13 0 0 -9z"/>
<path d="M4655 40 l-30 -8 30 0 c17 0 39 3 50 8 l20 9 -20 -1 c-11 0 -33 -4
-50 -8z"/>
<path d="M3915 21 c11 -5 54 -11 95 -14 l75 -6 -80 14 c-92 16 -119 17 -90 6z"/>
<path d="M4490 14 l-85 -13 83 6 c46 3 96 9 110 13 l27 8 -25 0 c-14 0 -63 -7
-110 -14z"/>
</g>
</svg>
