<svg height="1280pt" preserveAspectRatio="xMidYMid meet" viewBox="0 0 1280 1280" width="1280pt" xmlns="http://www.w3.org/2000/svg"><path d="m6402 7888c2-2697 3-4417 1-3823s-7 2799-12 4900l-9 3820 5-4897c3-3024 1-4898-5-4898-5 0-38 13-73 29-115 51-367 131-414 130-11 0 21-11 71-24 155-41 452-151 440-163-2-2-37 11-77 28-166 73-399 142-541 160-105 13-389 13-538 0-206-19-434-75-634-156-231-95-596-296-758-420-27-20-48-34-48-31s33 29 73 58c75 55 103 78 77 64-25-14-180-127-180-132 0-2 6-1 13 3 8 5 8 2-2-9-15-18-26-23-16-7 13 22-10 8-64-37-111-94-231-206-231-217 0-6 37 25 83 69 45 44 26 23-43-48-69-70-127-127-129-127-3 0 17 23 44 51 28 28 45 50 39 48s-43-40-82-84c-68-76-88-106-59-89 8 5 8 2-2-9-16-20-25-23-15-4 4 6-2 3-14-7-26-23-30-44-4-25 14 11 13 10-2-9-21-24-32-29-20-9 5 8 2 8-9-2-20-16-23-36-4-25 7 4 9 3 4-2s-14-9-20-9c-5 0-12-6-15-14-3-9 0-11 9-6 8 5 11 4 6-1s-14-9-20-9c-5 0-12-6-15-14-3-9 0-11 8-6 9 5 11 4 6-4-4-6-11-9-16-6-11 7-79-108-133-225-42-91-70-174-47-140 12 18 12 3 0-25-6-13-9-15-9-5-1 13-2 13-11 0-12-19-13-53-1-46 5 4 7-3 4-15-4-15-8-17-14-8-5 9-10 3-14-17-3-16-11-49-18-74-17-64-16-371 2-435 38-141 87-269 101-260 3 2 6-6 6-18-1-12 4-22 11-22 6 0 15-4 20-9s3-6-4-2c-20 11-15-4 18-56 17-26 35-46 39-43 5 3 12 0 16-6 5-8 3-9-6-4-8 5-11 3-8-6 3-8 10-13 16-12 5 1 16-5 24-15 12-15 11-16-5-3-28 22-20-3 10-30 15-13 21-16 14-7-22 30-7 20 25-14 16-18 19-24 6-14-12 11-22 14-22 9 0-20 176-177 261-233 88-58 228-123 290-134 19-3 4 5-33 18-98 35-189 79-257 126-86 58-76 59 13 1 356-232 915-253 1509-56 206 68 487 200 645 303 12 8 22 12 22 9 0-4-20-18-45-33-25-14-45-28-45-31 0-18 277 171 410 280 92 75 320 296 320 310 0 4-6 5-12 1-7-4 0 7 16 24 36 39 49 43 15 4-15-17-11-15 14 7 35 34 51 60 25 45-9-5-9-2 1 9 15 18 26 23 16 7-3-6-4-10-2-10 6 0 77 98 77 106 0 3-5 2-12-2s-8-3-4 5c4 6 11 9 16 6 4-3 20 15 34 39 29 49 32 61 14 50-7-4-8-3-4 5 4 6 11 9 16 6s14 3 19 14c14 26 14 34-1 25-8-4-10-3-5 2s14 9 20 9c15 0 128 226 123 247-2 10 1 21 6 25 7 4 8 1 3-8s-5-11 2-4c24 24 134 328 132 365 0 10-3 9-10-5-7-15-8-11-4 15 4 19 10 62 15 95s12 1669 17 3635c4 1966 9 3004 10 2305 3-1542-12-5958-21-6000l-6-30 12 30c14 35 25 2215 27 5314l1 1954 58-6c36-3 48-2 32 3-14 4-41 9-60 10-25 2-29 4-12 7 54 10 289-62 517-159 221-94 637-315 680-360 6-6-7-1-27 11-21 13-38 21-38 18s47-35 105-72c132-84 258-178 357-266 76-69 108-89 72-46-10 12 7-3 39-33 31-30 57-56 57-59 0-2-9 4-20 14-45 41-14-5 47-70 36-38 60-61 52-50-14 20-13 20 9 1 23-20 30-32 12-21-17 10-11-12 7-26 15-12 16-12 8 1s-7 13 8 1c19-15 23-26 6-15-7 4-10 1-7-7s10-13 16-12c5 1 16-5 24-15 12-15 11-16-4-3-10 7-18 9-18 3 0-11 31-39 37-34 3 2 8 0 11-4 4-4 1-4-7 1-9 5-12 3-9-6 3-8 10-14 15-14 6 0 15-4 20-9s2-6-6-1c-9 5-12 3-9-6 3-8 10-14 15-14 6 0 15-4 20-9s2-6-6-1c-9 5-12 3-9-6 3-8 10-14 15-14 6 0 15-4 20-9s3-6-4-2c-19 11-15-6 8-34l20-25-12 25c-9 20-9 23 1 13 7-7 13-25 14-40s6-28 13-28c6 0 15-4 20-9s2-6-6-1c-16 9-15 8 22-63 17-32 32-50 39-46s8 3 4-5c-9-14 52-143 64-136 5 3 12 0 16-6 5-8 3-9-5-4-9 5-12 2-9-11 2-11 9-18 16-17 6 2 9-3 7-10-6-15 46-142 59-144 10-2 26-24 26-38 0-5-5-3-10 5-16 24-12 8 21-81 33-91 44-112 34-64l-6 30 14-30c9-18 10-32 4-36s-5-14 3-25c11-18 11-18 5 1-4 12-3 16 3 10 14-15 33-77 22-70-6 4-10 13-10 22s-3 14-6 10c-4-3 8-50 25-104 16-54 44-154 61-223 44-179 49-196 44-140l-4 45 15-55c8-30 14-64 13-75 0-13-3-9-8 10l-8 30v-30c0-16 4-41 8-55l8-25 2 25c2 24 3 23 10-5 4-16 8-41 8-55 0-22-1-22-8 5-12 46-12 0 0-70 41-248 53-633 25-840-16-120-17-154-5-115 17 53 9-14-15-133-28-135-49-213-39-142 3 22 4 38 1 35-8-8-68-242-64-246 2-3 14 34 27 81s25 83 27 81c6-6-64-253-78-274-8-14-9-12-3 8 16 60-7 6-35-81-34-105-35-113-22-105 5 4 7-3 4-14s-9-23-14-26-6 3-4 13c3 10-3 0-13-22s-22-53-26-70c-7-29-7-29 8-10s15 18 5-13c-7-21-14-29-19-22-5 8-9 7-14-5-10-26-7-42 5-25 8 11 9 9 4-10-4-14-12-29-17-35-6-6-7-4-3 8 4 9 5 17 3 17-5 0-53-122-63-160-5-20-4-22 5-10 10 13 11 12 6-3-3-11-9-30-12-43s-12-24-19-24-22-25-34-56c-25-66-26-74-6-48 13 17 13 16 3-13-7-18-15-28-18-22-4 5-23-32-43-83-53-136-52-132-39-124 7 4 12 2 12-3 0-6-6-11-13-11-11 0-62-111-93-205l-7-20 17 20c15 19 15 17 0-20-19-47-30-61-19-25 14 47-3 15-34-63-35-87-38-99-16-71 14 18 15 17 4-8-7-15-15-25-19-23-5 3-11-2-14-11-9-24-7-31 5-14 8 11 9 9 3-10-3-14-11-32-16-40-6-10-7-7-2 10 14 52-7 10-51-104-25-65-44-124-41-130 2-6 5-3 5 6 1 9 5 19 10 22 5 4 7-3 4-14-10-36 35-23 90 27 29 26 39 33 23 15-17-17-26-32-20-32 9 0 64 64 64 75 0 3-5 3-12-1-7-5-8-3-4 5 5 7 11 10 14 7 7-7 32 13 32 26 0 6-8 4-17-3-16-13-17-12-4 3 7 10 17 15 22 13 11-7 42 53 34 66-4 5-1 8 6 7 6-2 14 3 17 11 3 9 0 11-8 6-9-5-11-4-6 4 4 6 11 9 16 6s18 12 30 34c23 47 25 55 8 45-8-4-10-3-5 2s14 9 20 9c7 0 12 10 11 22 0 12 3 20 7 17 12-7 51 75 45 92-3 8-1 13 4 11 9-2 130 243 130 264 0 6-4 7-10 4s-7 1-3 10c4 13 8 14 14 4s10-9 15 6c4 11 13 35 20 54 17 40 17 44 3 36-5-4-3 10 5 30 9 21 16 39 16 41s5 3 11 2c6-2 37 65 69 147 63 164 82 223 50 160-11-22-18-32-15-22s5 23 5 28 9 18 21 30c11 11 34 57 50 101 30 84 36 114 18 88-8-11-9-9-4 10 4 14 12 30 17 35 6 6 7 3 3-10-5-15-4-17 3-5 16 25 84 241 78 247-3 4-6-1-6-10s-4-18-9-21c-5-4-4 10 2 29 6 21 13 31 18 24 6-10 51 120 64 186 5 26 4 27-4 8-20-45-18-22 4 58 22 77 44 126 29 64-4-17-4-28-2-25 8 7 52 169 82 300 15 63 30 131 35 150s12 55 15 80c4 36 4 39-3 15-5-16-12-47-16-69-3-21-8-36-11-34-2 3 1 29 7 59s21 115 35 189c17 98 23 117 20 70-6-81 6-38 26 95 20 136 17 632-6 805-9 74-19 136-22 139-6 7-5-5 13-139 20-149 24-715 6-790-10-39-10-33-5 40 11 141 7 598-7 710-15 120-46 308-65 392-7 32-10 55-6 53 4-3 13-34 20-70s15-64 17-61c7 6-27 167-39 186-6 10-7 5-3-15 3-20 2-25-4-15-5 8-11 31-15 50-4 26-3 30 3 15l10-20v20c1 25-18 59-20 35-1-19-18 18-18 40 0 9 4 8 9-5 7-16 9-17 9-3 1 18-75 238-85 247-4 3-4-3 0-14 4-12 4-16-2-10-13 15-52 116-42 110 5-3 14-21 20-41 7-19 14-33 17-31 7 8-58 157-67 152-4-3-11 2-14 11-3 8-2 12 4 9 15-9 13-3-20 67-16 34-35 63-42 63-6 0-13 7-15 15-4 13-3 13 7 0 9-13 10-12 7 5-2 11-9 19-16 17-7-1-10 2-6 7 7 13-53 133-64 127-4-3-7 5-7 17 1 12-4 22-11 22-6 0-15 4-20 9s-3 6 5 2c15-9 15-1 1 25-5 11-15 16-21 13-7-4-8-3-4 4 9 14-22 75-34 67-5-3-12 0-16 6-4 8-3 9 4 5 15-9 15-1 1 25-5 11-14 17-19 14s-12 0-16 6c-5 8-3 9 6 4 8-5 11-3 8 6-3 8-10 14-15 14-6 0-15 4-20 9s-2 6 6 1c9-5 12-3 9 6-3 8-11 13-17 11-7-1-10 2-6 8 8 13-13 52-25 45-5-3-12 0-16 6-5 8-3 9 6 4 8-5 11-3 8 6-3 8-10 14-15 14-6 0-15 4-20 9s-2 6 6 1c9-5 12-3 9 6-3 8-10 14-15 14-6 0-15 4-20 9s-2 6 6 1c9-5 12-3 9 6-3 8-10 14-16 14-5 0-14 4-19 9s-2 6 6 1c9-5 12-3 9 6-3 8-10 14-16 14-5 0-14 4-19 9s-2 6 6 1c9-5 12-3 9 6-3 8-10 14-16 14-5 0-14 4-19 9s-3 6 5 2c18-11 15 9-5 25-15 12-16 12-8-1s7-13-8-1c-19 15-23 26-6 15 7-4 10-1 7 7s-10 14-16 14c-5 0-14 4-19 9s-3 6 5 2c18-11 15 9-5 25-15 12-16 12-8-1s7-13-8-1c-19 15-23 26-6 15 7-4 10-1 7 7s-10 14-16 14c-5 0-14 4-19 9s-3 6 5 2c18-11 15 9-5 25-15 12-16 12-8-1s7-13-8-1c-19 15-23 26-6 15 7-4 10-1 7 7s-10 13-16 12c-5-1-16 5-24 15-12 15-11 16 5 3 25-20 21 2-5 25-13 12-18 13-13 4 8-13 7-13-8-1-18 15-23 26-7 16 17-10 11 12-7 26-15 12-16 12-8-1s7-13-8-1c-18 15-23 26-7 16 17-10 11 12-7 26-15 12-16 12-8-1s7-13-8-1c-18 15-23 26-7 16 17-10 11 12-7 26-15 12-16 12-8-1 5-9 0-8-13 4-25 21-31 36-7 16s17 5-7 26c-13 12-18 13-13 4s0-8-13 4c-25 21-31 36-7 16 27-22 16 6-12 31-20 18-24 19-13 4 15-20 14-20-8-1-23 20-30 32-12 21 17-10 11 12-7 26-15 12-16 12-8-1 5-9 0-8-13 4-25 21-31 36-7 16 27-22 16 6-12 31-20 18-24 19-13 4 15-20 14-20-8-1-23 20-30 32-12 21 21-13 9 13-17 36-21 18-24 19-13 4s8-14-13 4c-28 25-38 43-12 21 38-32 5 12-102 137-65 75-136 158-158 184s-44 48-49 48c-6 1 3-14 20-31 21-24 17-22-14 7-40 37-59 61-27 35 8-7 15-9 15-4-1 5-40 50-88 100-48 49-74 74-57 55 30-36 30-36-13 4-41 38-53 53-32 40 6-3 10-3 10 0 0 8-200 235-208 235-3 0 3-9 13-20s16-20 13-20c-2 0-17 14-34 32-16 18-21 26-11 19 35-27 14 2-79 112-107 124-121 140-109 117 6-10 1-8-13 4-25 21-31 36-7 16 31-26 12 7-32 55-25 28-42 43-37 35 7-13 5-13-9-1-18 15-23 26-7 16 19-12 10 12-12 31s-23 19-8-1 14-20-8-1c-23 20-30 32-12 21 17-10 11 12-7 26-15 12-16 12-8-1s7-13-8-1c-19 15-23 26-6 15 7-4 10-1 7 7s-10 13-16 12c-5-1-16 5-24 15-12 15-11 16 5 3 25-20 21 2-5 25-13 12-18 13-13 4 8-13 7-13-8-1-18 15-23 26-7 16 17-10 11 12-7 26-14 12-16 12-8 0 5-10 4-12-4-7-6 4-9 11-6 16 8 12-25 61-35 55-5-3-12 0-16 6-5 8-3 9 6 4 8-5 11-3 8 6-3 8-10 14-16 14-5 0-14 4-19 9s-3 6 5 2c18-11 15 9-5 25-14 12-16 12-8 0 5-10 4-12-4-7-6 4-9 11-6 16 7 11-45 101-55 95-5-3-12 0-16 6-5 8-3 9 6 4 8-5 11-3 8 6-3 8-11 13-17 11-7-1-10 2-7 7 6 10-137 294-145 287-2-2-5 5-5 17-2 29-103 307-104 287-2-19-19 18-19 40 0 9 4 8 9-5 5-11 9-17 9-12 1 7-34 159-58 252l-10 40 4-50c4-46 4-47-5-15-13 49-40 202-39 220 1 8 5 2 10-15 5-20 6-9 2 30-6 69-13 84-14 34-1-22-6-5-16 46-11 59-15 155-15 363v282h-225-226zm551 3827c4-25 4-33-2-20-4 11-11 38-14 60-4 25-4 33 2 20 4-11 11-38 14-60zm14-67c-3-8-6-5-6 6-1 11 2 17 5 13 3-3 4-12 1-19zm46-138c3-11 2-18-3-15-4 3-10 14-13 25s-2 18 3 15c4-3 10-14 13-25zm46-135c17-43 29-80 27-82-4-4-66 152-66 165 0 14 11-9 39-83zm69-170c-3-3-9 2-12 12-6 14-5 15 5 6 7-7 10-15 7-18zm72-135c6-11 8-20 6-20-3 0-10 9-16 20s-8 20-6 20c3 0 10-9 16-20zm90-150c6-11 8-20 6-20-3 0-10 9-16 20s-8 20-6 20c3 0 10-9 16-20zm111-167c13-16 12-17-3-4-17 13-22 21-14 21 2 0 10-8 17-17zm219-288c13-14 21-25 18-25-2 0-15 11-28 25s-21 25-18 25c2 0 15-11 28-25zm90-110c13-14 21-25 18-25-2 0-15 11-28 25s-21 25-18 25c2 0 15-11 28-25zm56-67 29-33-32 29c-18 17-33 31-33 33 0 8 8 1 36-29zm54-63c13-14 21-25 18-25-2 0-15 11-28 25s-21 25-18 25c2 0 15-11 28-25zm135-155c21-22 37-40 34-40s-23 18-44 40-37 40-34 40 23-18 44-40zm75-85c19-19 32-35 29-35s-20 16-39 35-32 35-29 35 20-16 39-35zm165-185c21-22 37-40 34-40s-23 18-44 40-37 40-34 40 23-18 44-40zm165-185c19-19 32-35 29-35s-20 16-39 35-32 35-29 35 20-16 39-35zm70-80c19-19 32-35 29-35s-20 16-39 35-32 35-29 35 20-16 39-35zm66-77 29-33-32 29c-31 28-38 36-30 36 2 0 16-15 33-32zm54-63c13-14 21-25 18-25-2 0-15 11-28 25s-21 25-18 25c2 0 15-11 28-25zm-367-687c31-21 57-41 57-43 0-3-31 16-70 41-38 26-70 49-70 51 0 5 12-2 83-49zm127-94c0-3-13 4-30 16-16 12-30 24-30 26 0 3 14-4 30-16 17-12 30-24 30-26zm175-139c41-38 37-36-21 12-131 108-149 124-89 80 34-25 83-66 110-92zm211-207 29-33-32 29c-31 28-38 36-30 36 2 0 16-15 33-32zm712-93c-3-3-9 2-12 12-6 14-5 15 5 6 7-7 10-15 7-18zm27-45c9-16 13-30 11-30-3 0-12 14-21 30-9 17-13 30-11 30 3 0 12-13 21-30zm59-116c3-8 2-12-4-9s-10 10-10 16c0 14 7 11 14-7zm-514-154c6-11 8-20 6-20-3 0-10 9-16 20s-8 20-6 20c3 0 10-9 16-20zm80-151c12-23 20-43 18-45-3-2-14 17-26 41-27 56-20 60 8 4zm578-44c-3-3-9 2-12 12-6 14-5 15 5 6 7-7 10-15 7-18zm26-61c3-8 2-12-4-9s-10 10-10 16c0 14 7 11 14-7zm-524-69c0-5-5-3-10 5s-10 20-10 25c0 6 5 3 10-5s10-19 10-25zm549-15c0-10-3-8-9 5-12 27-12 43 0 25 5-8 9-22 9-30zm-519-55c0-5-5-3-10 5s-10 20-10 25c0 6 5 3 10-5s10-19 10-25zm49-125c0-8-6 0-14 19-8 18-15 36-15 40 1 13 29-45 29-59zm94-269c9-29 12-50 7-45-4 5-15 33-23 63-9 29-12 50-7 45 4-5 15-33 23-63zm36-131c0-9-4-8-9 5-5 11-9 27-9 35 0 9 4 8 9-5 5-11 9-27 9-35zm19-80c0-9-3-7-8 5-5 11-8 29-8 40 0 16 2 15 8-5 4-14 8-32 8-40zm20-80c0-9-3-7-8 5-5 11-8 29-8 40 0 16 2 15 8-5 4-14 8-32 8-40zm86-518 5-87-14 105c-7 58-16 132-19 165-5 53-4 50 8-18 8-43 17-117 20-165zm13-439c-1-65-3-12-3 117s2 182 3 118c2-65 2-171 0-235zm-12-208c-4-42-10-74-12-71-3 2-2 39 2 81s10 74 12 71c3-2 2-39-2-81zm255 15-11-25 6 25c2 14 5 34 6 45 2 19 2 19 6 0 2-12-1-32-7-45zm-40-171c-17-68-35-127-39-131s9 55 29 132c19 77 36 136 38 131s-11-64-28-132zm-99-356c-12-20-14-14-5 12 4 9 9 14 11 11 3-2 0-13-6-23zm-14-45c-3-8-6-5-6 6-1 11 2 17 5 13 3-3 4-12 1-19zm-16-49c-5-13-10-19-10-12-1 15 10 45 15 40 3-2 0-15-5-28zm-38-129c-3-11-10-23-16-27-5-3-8-2-5 3s8 17 11 27c9 24 16 22 10-3zm-220-5c-3-9-8-14-10-11-3 3-2 9 2 15 9 16 15 13 8-4zm-20-65c-3-11-10-23-16-27-5-3-8-2-5 3s8 17 11 27c9 24 16 22 10-3zm208-13c-10-9-11-8-5 6 3 10 9 15 12 12s0-11-7-18zm-20-60c-10-9-11-8-5 6 3 10 9 15 12 12s0-11-7-18zm-238-77c-3-11-10-23-16-27-5-3-8-2-5 3s8 17 11 27c9 24 16 22 10-3zm200-45c-3-9-8-14-10-11-3 3-2 9 2 15 9 16 15 13 8-4zm-32-78c-10-9-11-8-5 6 3 10 9 15 12 12s0-11-7-18zm-238-72c-3-9-8-14-10-11-3 3-2 9 2 15 9 16 15 13 8-4zm-32-82c-12-20-14-14-5 12 4 9 9 14 11 11 3-2 0-13-6-23zm189-73c-6-11-13-20-16-20-2 0 0 9 6 20s13 20 16 20c2 0 0-9-6-20zm-29-67c-12-20-14-14-5 12 4 9 9 14 11 11 3-2 0-13-6-23zm-221-23c-6-11-13-20-16-20-2 0 0 9 6 20s13 20 16 20c2 0 0-9-6-20zm201-27c-12-20-14-14-5 12 4 9 9 14 11 11 3-2 0-13-6-23zm-248-98c-3-9-8-14-10-11-3 3-2 9 2 15 9 16 15 13 8-4zm-23-55c-6-11-13-20-16-20-2 0 0 9 6 20s13 20 16 20c2 0 0-9-6-20zm201-17c-12-20-14-14-5 12 4 9 9 14 11 11 3-2 0-13-6-23zm-46-113c-9-16-18-30-21-30-2 0 2 14 11 30 9 17 18 30 21 30 2 0-2-13-11-30zm-212-20c-3-12-8-19-11-16-5 6 5 36 12 36 2 0 2-9-1-20zm-25-60c-5-17-15-33-21-37-5-3-7-2-4 4 4 6 11 22 16 37 14 36 22 33 9-4zm182-38c0-5-7-17-15-28-14-18-14-17-4 9 12 27 19 34 19 19zm-210-32c-6-11-13-20-16-20-2 0 0 9 6 20s13 20 16 20c2 0 0-9-6-20zm173-45c-3-9-8-14-10-11-3 3-2 9 2 15 9 16 15 13 8-4zm-237-119c-21-49-28-46-9 4 9 22 18 38 20 36s-3-20-11-40zm-90-230c-21-49-28-46-9 4 9 22 18 38 20 36s-3-20-11-40zm154 24c-6-11-13-20-16-20-2 0 0 9 6 20s13 20 16 20c2 0 0-9-6-20zm-182-101c-6-16-12-28-14-26-5 5 13 57 20 57 3 0 0-14-6-31zm-4948-783c0-2-26-25-57-51l-58-47 55 51c54 50 60 55 60 47zm-370-359c0-2-12-14-27-28l-28-24 24 28c23 25 31 32 31 24zm3405-281c-9-30-20-58-24-60-4-3 2 24 13 59 24 79 34 79 11 1zm-3595 24c-6-11-13-20-16-20-2 0 0 9 6 20s13 20 16 20c2 0 0-9-6-20zm-30-50c-6-11-13-20-16-20-2 0 0 9 6 20s13 20 16 20c2 0 0-9-6-20zm-47-85c-3-9-8-14-10-11-3 3-2 9 2 15 9 16 15 13 8-4zm3628-12c-12-20-14-14-5 12 4 9 9 14 11 11 3-2 0-13-6-23zm-20-50c-12-20-14-14-5 12 4 9 9 14 11 11 3-2 0-13-6-23zm-3638 2c-3-9-8-14-10-11-3 3-2 9 2 15 9 16 15 13 8-4zm-22-52c-12-20-14-14-5 12 4 9 9 14 11 11 3-2 0-13-6-23zm3649 19c0-5-7-17-15-28-14-18-14-17-4 9 12 27 19 34 19 19zm-3669-69c-12-20-14-14-5 12 4 9 9 14 11 11 3-2 0-13-6-23zm3610-56c-10-9-11-8-5 6 3 10 9 15 12 12s0-11-7-18zm-20-44c-12-20-14-14-5 12 4 9 9 14 11 11 3-2 0-13-6-23zm-3644-85c-3-7-5-2-5 12s2 19 5 13c2-7 2-19 0-25zm-12-55c-4-21-11-101-15-178l-8-140 4 150c3 142 10 205 21 205 3 0 2-17-2-37zm3505-133c-6-11-13-20-16-20-2 0 0 9 6 20s13 20 16 20c2 0 0-9-6-20zm-60-90c-12-16-24-30-26-30-3 0 4 14 16 30 12 17 24 30 26 30 3 0-4-13-16-30zm-3447-160c4-36 3-46-3-30-8 25-13 97-6 89 2-2 6-29 9-59zm3202-118c-61-59-135-127-165-151-48-38-47-36 10 15 36 32 108 100 160 151s97 93 100 93c3-1-45-49-105-108zm-3174 3c6-20 6-26-1-19-5 5-12 25-15 44-5 36-1 29 16-25zm23-71c3-8 2-12-4-9s-10 10-10 16c0 14 7 11 14-7zm35-89c0-5-6 1-14 15s-14 30-14 35c0 6 6-1 14-15s14-29 14-35zm2886-45c-7-11-199-151-235-171-30-17-29-16 118 93 125 92 126 93 117 78zm-2810-86c9-15 12-23 6-20-11 7-35 46-28 46 3 0 12-12 22-26zm170-214c21-22 37-40 34-40s-23 18-44 40-37 40-34 40 23-18 44-40zm86-77 24-28-30 25c-16 14-32 26-34 28-2 1 0 2 6 2 5 0 20-12 34-27z" transform="matrix(.1 0 0 -.1 0 1280)"/></svg>